<svg id="visual" viewBox="0 0 900 450" width="900" height="450" xmlns="http://www.w3.org/2000/svg" xmlns:xlink="http://www.w3.org/1999/xlink" version="1.1"><rect x="0" y="0" width="900" height="450" fill="#ccc"></rect><path d="M0 164L16.7 162C33.3 160 66.7 156 100 152.3C133.3 148.7 166.7 145.3 200 148.2C233.3 151 266.7 160 300 156.5C333.3 153 366.7 137 400 138.2C433.3 139.3 466.7 157.7 500 157C533.3 156.3 566.7 136.7 600 133.8C633.3 131 666.7 145 700 148.2C733.3 151.3 766.7 143.7 800 137C833.3 130.3 866.7 124.7 883.3 121.8L900 119L900 0L883.3 0C866.7 0 833.3 0 800 0C766.7 0 733.3 0 700 0C666.7 0 633.3 0 600 0C566.7 0 533.3 0 500 0C466.7 0 433.3 0 400 0C366.7 0 333.3 0 300 0C266.7 0 233.3 0 200 0C166.7 0 133.3 0 100 0C66.7 0 33.3 0 16.7 0L0 0Z" fill="#fca5a5"></path><path d="M0 128L16.7 122.5C33.3 117 66.7 106 100 102C133.3 98 166.7 101 200 105.8C233.3 110.7 266.7 117.3 300 116.5C333.3 115.7 366.7 107.3 400 108C433.3 108.7 466.7 118.3 500 120.7C533.3 123 566.7 118 600 117.3C633.3 116.7 666.7 120.3 700 122.3C733.3 124.3 766.7 124.7 800 126.7C833.3 128.7 866.7 132.3 883.3 134.2L900 136L900 0L883.3 0C866.7 0 833.3 0 800 0C766.7 0 733.3 0 700 0C666.7 0 633.3 0 600 0C566.7 0 533.3 0 500 0C466.7 0 433.3 0 400 0C366.7 0 333.3 0 300 0C266.7 0 233.3 0 200 0C166.7 0 133.3 0 100 0C66.7 0 33.3 0 16.7 0L0 0Z" fill="#fc9494"></path><path d="M0 61L16.7 63.8C33.3 66.7 66.7 72.3 100 78.7C133.3 85 166.7 92 200 95C233.3 98 266.7 97 300 91.2C333.3 85.3 366.7 74.7 400 72.5C433.3 70.3 466.7 76.7 500 80C533.3 83.3 566.7 83.7 600 83.8C633.3 84 666.7 84 700 84.8C733.3 85.7 766.7 87.3 800 87.7C833.3 88 866.7 87 883.3 86.5L900 86L900 0L883.3 0C866.7 0 833.3 0 800 0C766.7 0 733.3 0 700 0C666.7 0 633.3 0 600 0C566.7 0 533.3 0 500 0C466.7 0 433.3 0 400 0C366.7 0 333.3 0 300 0C266.7 0 233.3 0 200 0C166.7 0 133.3 0 100 0C66.7 0 33.3 0 16.7 0L0 0Z" fill="#fa8382"></path><path d="M0 45L16.7 47.7C33.3 50.3 66.7 55.7 100 58.2C133.3 60.7 166.7 60.3 200 56.5C233.3 52.7 266.7 45.3 300 40.2C333.3 35 366.7 32 400 30.5C433.3 29 466.7 29 500 30.3C533.3 31.7 566.7 34.3 600 36C633.3 37.7 666.7 38.3 700 38C733.3 37.7 766.7 36.3 800 37.7C833.3 39 866.7 43 883.3 45L900 47L900 0L883.3 0C866.7 0 833.3 0 800 0C766.7 0 733.3 0 700 0C666.7 0 633.3 0 600 0C566.7 0 533.3 0 500 0C466.7 0 433.3 0 400 0C366.7 0 333.3 0 300 0C266.7 0 233.3 0 200 0C166.7 0 133.3 0 100 0C66.7 0 33.3 0 16.7 0L0 0Z" fill="#f87171"></path></svg>