<svg id="visual" viewBox="0 0 900 450" width="900" height="450" xmlns="http://www.w3.org/2000/svg" xmlns:xlink="http://www.w3.org/1999/xlink" version="1.1"><path d="M0 28L13.7 28C27.3 28 54.7 28 82 34.8C109.3 41.7 136.7 55.3 163.8 57.7C191 60 218 51 245.2 47.2C272.3 43.3 299.7 44.7 327 45.3C354.3 46 381.7 46 409 44.5C436.3 43 463.7 40 491 45.3C518.3 50.7 545.7 64.3 573 62.8C600.3 61.3 627.7 44.7 654.8 43.8C682 43 709 58 736.2 61.8C763.3 65.7 790.7 58.3 818 56.2C845.3 54 872.7 57 886.3 58.5L900 60L900 0L886.3 0C872.7 0 845.3 0 818 0C790.7 0 763.3 0 736.2 0C709 0 682 0 654.8 0C627.7 0 600.3 0 573 0C545.7 0 518.3 0 491 0C463.7 0 436.3 0 409 0C381.7 0 354.3 0 327 0C299.7 0 272.3 0 245.2 0C218 0 191 0 163.8 0C136.7 0 109.3 0 82 0C54.7 0 27.3 0 13.7 0L0 0Z" fill="#ffdcdb"></path><path d="M0 105L13.7 109.5C27.3 114 54.7 123 82 126C109.3 129 136.7 126 163.8 121.5C191 117 218 111 245.2 117C272.3 123 299.7 141 327 141.7C354.3 142.3 381.7 125.7 409 112.8C436.3 100 463.7 91 491 99.3C518.3 107.7 545.7 133.3 573 143.8C600.3 154.3 627.7 149.7 654.8 152.7C682 155.7 709 166.3 736.2 160.3C763.3 154.3 790.7 131.7 818 118.8C845.3 106 872.7 103 886.3 101.5L900 100L900 58L886.3 56.5C872.7 55 845.3 52 818 54.2C790.7 56.3 763.3 63.7 736.2 59.8C709 56 682 41 654.8 41.8C627.7 42.7 600.3 59.3 573 60.8C545.7 62.3 518.3 48.7 491 43.3C463.7 38 436.3 41 409 42.5C381.7 44 354.3 44 327 43.3C299.7 42.7 272.3 41.3 245.2 45.2C218 49 191 58 163.8 55.7C136.7 53.3 109.3 39.7 82 32.8C54.7 26 27.3 26 13.7 26L0 26Z" fill="#ffd3d2"></path><path d="M0 276L13.7 270C27.3 264 54.7 252 82 246C109.3 240 136.7 240 163.8 236.2C191 232.3 218 224.7 245.2 223.2C272.3 221.7 299.7 226.3 327 227.8C354.3 229.3 381.7 227.7 409 220.2C436.3 212.7 463.7 199.3 491 212.8C518.3 226.3 545.7 266.7 573 284.7C600.3 302.7 627.7 298.3 654.8 293.8C682 289.3 709 284.7 736.2 268.8C763.3 253 790.7 226 818 229.8C845.3 233.7 872.7 268.3 886.3 285.7L900 303L900 98L886.3 99.5C872.7 101 845.3 104 818 116.8C790.7 129.7 763.3 152.3 736.2 158.3C709 164.3 682 153.7 654.8 150.7C627.7 147.7 600.3 152.3 573 141.8C545.7 131.3 518.3 105.7 491 97.3C463.7 89 436.3 98 409 110.8C381.7 123.7 354.3 140.3 327 139.7C299.7 139 272.3 121 245.2 115C218 109 191 115 163.8 119.5C136.7 124 109.3 127 82 124C54.7 121 27.3 112 13.7 107.5L0 103Z" fill="#fecaca"></path><path d="M0 357L13.7 353.2C27.3 349.3 54.7 341.7 82 334.2C109.3 326.7 136.7 319.3 163.8 311.2C191 303 218 294 245.2 289.5C272.3 285 299.7 285 327 285C354.3 285 381.7 285 409 278.2C436.3 271.3 463.7 257.7 491 268.8C518.3 280 545.7 316 573 329.5C600.3 343 627.7 334 654.8 327.3C682 320.7 709 316.3 736.2 310.3C763.3 304.3 790.7 296.7 818 301.8C845.3 307 872.7 325 886.3 334L900 343L900 301L886.3 283.7C872.7 266.3 845.3 231.7 818 227.8C790.7 224 763.3 251 736.2 266.8C709 282.7 682 287.3 654.8 291.8C627.7 296.3 600.3 300.7 573 282.7C545.7 264.7 518.3 224.3 491 210.8C463.7 197.3 436.3 210.7 409 218.2C381.7 225.7 354.3 227.3 327 225.8C299.7 224.3 272.3 219.7 245.2 221.2C218 222.7 191 230.3 163.8 234.2C136.7 238 109.3 238 82 244C54.7 250 27.3 262 13.7 268L0 274Z" fill="#ffbcbb"></path><path d="M0 451L13.7 451C27.3 451 54.7 451 82 451C109.3 451 136.7 451 163.8 451C191 451 218 451 245.2 451C272.3 451 299.7 451 327 451C354.3 451 381.7 451 409 451C436.3 451 463.7 451 491 451C518.3 451 545.7 451 573 451C600.3 451 627.7 451 654.8 451C682 451 709 451 736.2 451C763.3 451 790.7 451 818 451C845.3 451 872.7 451 886.3 451L900 451L900 341L886.3 332C872.7 323 845.3 305 818 299.8C790.7 294.7 763.3 302.3 736.2 308.3C709 314.3 682 318.7 654.8 325.3C627.7 332 600.3 341 573 327.5C545.7 314 518.3 278 491 266.8C463.7 255.7 436.3 269.3 409 276.2C381.7 283 354.3 283 327 283C299.7 283 272.3 283 245.2 287.5C218 292 191 301 163.8 309.2C136.7 317.3 109.3 324.7 82 332.2C54.7 339.7 27.3 347.3 13.7 351.2L0 355Z" fill="#ffadac"></path></svg>